<svg width="17" height="16" viewBox="0 0 17 16" fill="none" xmlns="http://www.w3.org/2000/svg">
<g clip-path="url(#clip0_26_137)">
<path d="M7.2076 7.44079C7.2076 7.44079 8.7212 7.32319 8.7212 5.47359C8.7212 3.62159 7.4828 2.72079 5.9132 2.72079H0.75V13.0616H5.9132C5.9132 13.0616 9.066 13.1648 9.066 10.0088C9.0652 10.008 9.2028 7.44079 7.2076 7.44079ZM3.0252 4.55759H5.9132C5.9132 4.55759 6.6156 4.55759 6.6156 5.63279C6.6156 6.70959 6.2028 6.86559 5.734 6.86559H3.0252V4.55759ZM5.7668 11.2232H3.0252V8.4592H5.9132C5.9132 8.4592 6.9596 8.44479 6.9596 9.87919C6.9596 11.0888 6.178 11.2144 5.7668 11.2232ZM13.2692 5.35039C9.4524 5.35039 9.4556 9.32399 9.4556 9.32399C9.4556 9.32399 9.1948 13.2768 13.2692 13.2768C13.2692 13.2768 16.6636 13.48 16.6636 10.5272H14.918C14.918 10.5272 14.9756 11.64 13.3276 11.64C13.3276 11.64 11.5804 11.7616 11.5804 9.83999H16.7188C16.7196 9.83919 17.286 5.35039 13.2692 5.35039ZM14.822 8.4592H11.5628C11.5628 8.4592 11.7756 6.86559 13.3084 6.86559C14.8412 6.86559 14.822 8.4592 14.822 8.4592ZM15.2276 3.32799H11.134V4.60319H15.2276V3.32799Z" fill="#1C212B"/>
</g>
<defs>
<clipPath id="clip0_26_137">
<rect width="16" height="16" fill="white" transform="translate(0.75)"/>
</clipPath>
</defs>
</svg>
