<svg width="20" height="20" viewBox="0 0 20 20" fill="none" xmlns="http://www.w3.org/2000/svg">
<path fill-rule="evenodd" clip-rule="evenodd" d="M2.70825 8.45249C2.70825 4.36999 5.96242 1.04166 9.99992 1.04166C14.0374 1.04166 17.2916 4.36999 17.2916 8.45249C17.2916 10.4233 16.7299 12.54 15.7366 14.3683C14.7449 16.1942 13.2966 17.7808 11.4841 18.6283C11.0195 18.8458 10.5129 18.9586 9.99992 18.9586C9.48697 18.9586 8.9803 18.8458 8.51575 18.6283C6.70325 17.7808 5.25492 16.195 4.26325 14.3683C3.26992 12.54 2.70825 10.4233 2.70825 8.45249ZM9.99992 2.29166C6.67325 2.29166 3.95825 5.03916 3.95825 8.45249C3.95825 10.2 4.46075 12.1125 5.36159 13.7717C6.26325 15.4325 7.53825 16.7917 9.04492 17.4958C9.34368 17.6358 9.66957 17.7084 9.9995 17.7084C10.3294 17.7084 10.6553 17.6358 10.9541 17.4958C12.4616 16.7917 13.7366 15.4325 14.6383 13.7717C15.5391 12.1133 16.0416 10.2 16.0416 8.45249C16.0416 5.03916 13.3266 2.29166 9.99992 2.29166ZM9.99992 6.45832C9.75369 6.45832 9.50987 6.50682 9.28239 6.60105C9.0549 6.69528 8.8482 6.83339 8.67409 7.0075C8.49998 7.18161 8.36187 7.38831 8.26764 7.61579C8.17342 7.84328 8.12492 8.08709 8.12492 8.33332C8.12492 8.57955 8.17342 8.82337 8.26764 9.05085C8.36187 9.27834 8.49998 9.48504 8.67409 9.65915C8.8482 9.83326 9.0549 9.97137 9.28239 10.0656C9.50987 10.1598 9.75369 10.2083 9.99992 10.2083C10.4972 10.2083 10.9741 10.0108 11.3257 9.65915C11.6774 9.30752 11.8749 8.8306 11.8749 8.33332C11.8749 7.83604 11.6774 7.35913 11.3257 7.0075C10.9741 6.65587 10.4972 6.45832 9.99992 6.45832ZM6.87492 8.33332C6.87492 7.50452 7.20416 6.70967 7.79021 6.12361C8.37626 5.53756 9.17112 5.20832 9.99992 5.20832C10.8287 5.20832 11.6236 5.53756 12.2096 6.12361C12.7957 6.70967 13.1249 7.50452 13.1249 8.33332C13.1249 9.16212 12.7957 9.95698 12.2096 10.543C11.6236 11.1291 10.8287 11.4583 9.99992 11.4583C9.17112 11.4583 8.37626 11.1291 7.79021 10.543C7.20416 9.95698 6.87492 9.16212 6.87492 8.33332Z" fill="#1C212B"/>
</svg>
