<svg width="13" height="14" viewBox="0 0 13 14" fill="none" xmlns="http://www.w3.org/2000/svg">
<g clip-path="url(#clip0_26_591)">
<path d="M10.3038 1.21953C10.4651 0.844925 10.3448 0.407425 10.014 0.1668C9.68312 -0.0738249 9.23194 -0.0519499 8.92296 0.216019L1.92296 6.34102C1.64952 6.58164 1.55108 6.96719 1.6796 7.30625C1.80812 7.64532 2.13624 7.875 2.49991 7.875H5.54874L3.44601 12.7805C3.28468 13.1551 3.40499 13.5926 3.73585 13.8332C4.06671 14.0738 4.51788 14.052 4.82687 13.784L11.8269 7.65899C12.1003 7.41836 12.1987 7.03282 12.0702 6.69375C11.9417 6.35469 11.6163 6.12774 11.2499 6.12774H8.20109L10.3038 1.21953Z" fill="white"/>
</g>
<defs>
<clipPath id="clip0_26_591">
<rect width="12.25" height="14" fill="white" transform="translate(0.75)"/>
</clipPath>
</defs>
</svg>
