<svg width="32" height="20" viewBox="0 0 32 20" fill="none" xmlns="http://www.w3.org/2000/svg">
<path d="M16.0009 0.5C11.7332 0.5 9.06716 2.6334 7.99907 6.90019C9.59981 4.76772 11.466 3.96688 13.5993 4.50047C14.8164 4.80404 15.6871 5.68682 16.6491 6.66459C18.2181 8.25696 20.034 10.0998 24 10.0998C28.2668 10.0998 30.9328 7.96642 32 3.70056C30.4002 5.83302 28.5331 6.63386 26.4007 6.09935C25.1826 5.79577 24.312 4.91299 23.35 3.93522C21.7809 2.34379 19.9651 0.5 16.0009 0.5ZM7.99907 10.0998C3.73414 10.0998 1.06623 12.2332 0 16.5C1.59981 14.3666 3.46688 13.5667 5.59935 14.1003C6.81737 14.4039 7.68805 15.2866 8.64998 16.2644C10.2191 17.8568 12.0349 19.6996 16.0009 19.6996C20.2677 19.6996 22.9338 17.5672 24 13.3004C22.4002 15.4328 20.534 16.2337 18.4007 15.7001C17.1836 15.3956 16.3129 14.5119 15.35 13.535C13.7819 11.9427 11.9651 10.0998 7.99907 10.0998Z" fill="#1C212B"/>
</svg>
