<svg width="24" height="23" viewBox="0 0 24 23" fill="none" xmlns="http://www.w3.org/2000/svg">
<path d="M18.6308 12.3047C17.2627 12.3047 15.9506 12.8482 14.9832 13.8156C14.0158 14.783 13.4723 16.0951 13.4723 17.4632C13.4723 18.8313 14.0158 20.1434 14.9832 21.1108C15.9506 22.0782 17.2627 22.6217 18.6308 22.6217C19.9989 22.6217 21.311 22.0782 22.2784 21.1108C23.2458 20.1434 23.7893 18.8313 23.7893 17.4632C23.7893 16.0951 23.2458 14.783 22.2784 13.8156C21.311 12.8482 19.9989 12.3047 18.6308 12.3047ZM5.22982 12.3057C4.54648 12.2962 3.86807 12.4226 3.23399 12.6775C2.59991 12.9324 2.02281 13.3108 1.53622 13.7906C1.04963 14.2705 0.663252 14.8423 0.399529 15.4727C0.135807 16.1032 0 16.7798 0 17.4632C0 18.1466 0.135807 18.8232 0.399529 19.4537C0.663252 20.0841 1.04963 20.6559 1.53622 21.1358C2.02281 21.6156 2.59991 21.994 3.23399 22.2489C3.86807 22.5038 4.54648 22.6302 5.22982 22.6207C6.58523 22.6018 7.87874 22.0501 8.83056 21.085C9.78238 20.1198 10.316 18.8188 10.316 17.4632C10.316 16.1077 9.78238 14.8066 8.83056 13.8414C7.87874 12.8763 6.58523 12.3246 5.22982 12.3057ZM17.0878 5.85771C17.0878 7.22569 16.5444 8.53765 15.5771 9.50496C14.6098 10.4723 13.2978 11.0157 11.9298 11.0157C10.5618 11.0157 9.24987 10.4723 8.28256 9.50496C7.31525 8.53765 6.77182 7.22569 6.77182 5.85771C6.77182 4.48972 7.31525 3.17776 8.28256 2.21045C9.24987 1.24314 10.5618 0.699707 11.9298 0.699707C13.2978 0.699707 14.6098 1.24314 15.5771 2.21045C16.5444 3.17776 17.0878 4.48972 17.0878 5.85771Z" fill="#1C212B"/>
</svg>
