<svg width="18" height="18" viewBox="0 0 18 18" fill="none" xmlns="http://www.w3.org/2000/svg">
<path d="M8.75008 0.666656C4.15008 0.666656 0.416748 4.39999 0.416748 8.99999C0.416748 13.6 4.15008 17.3333 8.75008 17.3333C13.3417 17.3333 17.0834 13.6 17.0834 8.99999C17.0834 4.39999 13.3417 0.666656 8.75008 0.666656ZM14.2542 4.50832C15.2799 5.75768 15.8475 7.32027 15.8626 8.93666C15.6284 8.89166 13.2784 8.41249 10.9101 8.71082C10.8559 8.59332 10.8101 8.46666 10.7567 8.33999C10.6094 7.99246 10.4527 7.649 10.2867 7.30999C12.9076 6.24332 14.1009 4.70666 14.2542 4.50832ZM8.75008 1.89582C10.5584 1.89582 12.2117 2.57416 13.4684 3.68582C13.3417 3.86582 12.2659 5.30332 9.73508 6.25249C8.56925 4.11082 7.27675 2.35666 7.07758 2.08582C7.62581 1.95777 8.1871 1.894 8.75008 1.89582ZM5.72258 2.56499C6.67614 3.88701 7.55716 5.25987 8.36175 6.67749C5.03508 7.56332 2.09758 7.54416 1.78175 7.54416C2.01071 6.46674 2.4855 5.45678 3.16909 4.59309C3.85267 3.72939 4.72656 3.03531 5.72258 2.56499ZM1.62758 9.00832V8.79166C1.93591 8.79999 5.38758 8.84582 8.94008 7.77916C9.14841 8.17666 9.33758 8.58332 9.51841 8.98999C9.42758 9.01749 9.32841 9.04416 9.23841 9.07166C5.56842 10.255 3.61591 13.4908 3.45341 13.7625C2.27814 12.458 1.62712 10.7642 1.62758 9.00832ZM8.75008 16.1225C7.16792 16.1253 5.63057 15.5971 4.38425 14.6225C4.51091 14.36 5.95758 11.5758 9.97008 10.175C9.98841 10.1667 9.99758 10.1667 10.0151 10.1567C10.6921 11.9028 11.2008 13.7096 11.5342 15.5525C10.6549 15.9309 9.70735 16.1249 8.75008 16.1225ZM12.7176 14.9017C12.6459 14.4683 12.2659 12.3892 11.3342 9.83166C13.5676 9.47916 15.5201 10.0575 15.7634 10.1392C15.6113 11.1 15.2623 12.0191 14.7381 12.8387C14.214 13.6582 13.5261 14.3606 12.7176 14.9017Z" fill="#1C212B"/>
</svg>
