<svg width="1078" height="560" viewBox="0 0 1078 560" fill="none" xmlns="http://www.w3.org/2000/svg">
<g clip-path="url(#clip0_26_322)">
<mask id="mask0_26_322" style="mask-type:alpha" maskUnits="userSpaceOnUse" x="0" y="0" width="1078" height="560">
<rect width="1078" height="560" fill="#D9D9D9"/>
</mask>
<g mask="url(#mask0_26_322)">
<line x1="280.795" y1="340.18" x2="280.795" y2="569" stroke="#F3F4F7"/>
<line x1="231.134" y1="340.18" x2="231.134" y2="569" stroke="#F3F4F7"/>
<line x1="181.474" y1="340.18" x2="181.474" y2="569" stroke="#F3F4F7"/>
<line x1="132.585" y1="340.18" x2="132.585" y2="569" stroke="#F3F4F7"/>
<line x1="83.9534" y1="340.18" x2="83.9534" y2="569" stroke="#F3F4F7"/>
<line x1="34.5498" y1="340.18" x2="34.5498" y2="569" stroke="#F3F4F7"/>
<line x1="329.427" y1="340.18" x2="329.427" y2="569" stroke="#F3F4F7"/>
<line x1="-4.37114e-08" y1="432.767" x2="374.351" y2="432.767" stroke="#F3F4F7"/>
<line x1="-4.37114e-08" y1="383.855" x2="374.351" y2="383.855" stroke="#F3F4F7"/>
<line x1="-4.37114e-08" y1="481.679" x2="374.351" y2="481.679" stroke="#F3F4F7"/>
<line x1="-4.37114e-08" y1="530.591" x2="374.351" y2="530.591" stroke="#F3F4F7"/>
<rect x="127.373" y="432.718" width="7.25915" height="7.25915" transform="rotate(-45 127.373 432.718)" fill="#F3F4F7" stroke="#F3F4F7"/>
<rect x="127.373" y="383.81" width="7.25915" height="7.25915" transform="rotate(-45 127.373 383.81)" fill="#F3F4F7" stroke="#F3F4F7"/>
<rect x="127.373" y="481.706" width="7.25915" height="7.25915" transform="rotate(-45 127.373 481.706)" fill="#F3F4F7" stroke="#F3F4F7"/>
<rect x="127.373" y="530.613" width="7.25915" height="7.25915" transform="rotate(-45 127.373 530.613)" fill="#F3F4F7" stroke="#F3F4F7"/>
<rect x="78.8448" y="432.718" width="7.25915" height="7.25915" transform="rotate(-45 78.8448 432.718)" fill="#F3F4F7" stroke="#F3F4F7"/>
<rect x="78.8448" y="383.81" width="7.25915" height="7.25915" transform="rotate(-45 78.8448 383.81)" fill="#F3F4F7" stroke="#F3F4F7"/>
<rect x="78.8448" y="481.706" width="7.25915" height="7.25915" transform="rotate(-45 78.8448 481.706)" fill="#F3F4F7" stroke="#F3F4F7"/>
<rect x="78.8448" y="530.613" width="7.25915" height="7.25915" transform="rotate(-45 78.8448 530.613)" fill="#F3F4F7" stroke="#F3F4F7"/>
<rect x="29.3243" y="432.718" width="7.25915" height="7.25915" transform="rotate(-45 29.3243 432.718)" fill="#F3F4F7" stroke="#F3F4F7"/>
<rect x="29.3243" y="383.81" width="7.25915" height="7.25915" transform="rotate(-45 29.3243 383.81)" fill="#F3F4F7" stroke="#F3F4F7"/>
<rect x="29.3243" y="481.706" width="7.25915" height="7.25915" transform="rotate(-45 29.3243 481.706)" fill="#F3F4F7" stroke="#F3F4F7"/>
<rect x="29.3243" y="530.613" width="7.25915" height="7.25915" transform="rotate(-45 29.3243 530.613)" fill="#F3F4F7" stroke="#F3F4F7"/>
<rect x="176.352" y="432.718" width="7.25915" height="7.25915" transform="rotate(-45 176.352 432.718)" fill="#F3F4F7" stroke="#F3F4F7"/>
<rect x="176.352" y="383.81" width="7.25915" height="7.25915" transform="rotate(-45 176.352 383.81)" fill="#F3F4F7" stroke="#F3F4F7"/>
<rect x="176.352" y="481.706" width="7.25915" height="7.25915" transform="rotate(-45 176.352 481.706)" fill="#F3F4F7" stroke="#F3F4F7"/>
<rect x="176.352" y="530.613" width="7.25915" height="7.25915" transform="rotate(-45 176.352 530.613)" fill="#F3F4F7" stroke="#F3F4F7"/>
<rect x="225.927" y="432.718" width="7.25915" height="7.25915" transform="rotate(-45 225.927 432.718)" fill="#F3F4F7" stroke="#F3F4F7"/>
<rect x="225.927" y="383.81" width="7.25915" height="7.25915" transform="rotate(-45 225.927 383.81)" fill="#F3F4F7" stroke="#F3F4F7"/>
<rect x="225.927" y="481.706" width="7.25915" height="7.25915" transform="rotate(-45 225.927 481.706)" fill="#F3F4F7" stroke="#F3F4F7"/>
<rect x="225.927" y="530.613" width="7.25915" height="7.25915" transform="rotate(-45 225.927 530.613)" fill="#F3F4F7" stroke="#F3F4F7"/>
<rect x="275.535" y="432.718" width="7.25915" height="7.25915" transform="rotate(-45 275.535 432.718)" fill="#F3F4F7" stroke="#F3F4F7"/>
<rect x="275.535" y="383.81" width="7.25915" height="7.25915" transform="rotate(-45 275.535 383.81)" fill="#F3F4F7" stroke="#F3F4F7"/>
<rect x="275.535" y="481.706" width="7.25915" height="7.25915" transform="rotate(-45 275.535 481.706)" fill="#F3F4F7" stroke="#F3F4F7"/>
<rect x="275.535" y="530.613" width="7.25915" height="7.25915" transform="rotate(-45 275.535 530.613)" fill="#F3F4F7" stroke="#F3F4F7"/>
<rect x="324.276" y="432.718" width="7.25915" height="7.25915" transform="rotate(-45 324.276 432.718)" fill="#F3F4F7" stroke="#F3F4F7"/>
<rect x="324.276" y="383.81" width="7.25915" height="7.25915" transform="rotate(-45 324.276 383.81)" fill="#F3F4F7" stroke="#F3F4F7"/>
<rect x="324.276" y="481.706" width="7.25915" height="7.25915" transform="rotate(-45 324.276 481.706)" fill="#F3F4F7" stroke="#F3F4F7"/>
<rect x="324.276" y="530.613" width="7.25915" height="7.25915" transform="rotate(-45 324.276 530.613)" fill="#F3F4F7" stroke="#F3F4F7"/>
<rect y="340.18" width="374" height="228.82" fill="url(#paint0_radial_26_322)"/>
<line x1="984.966" y1="-0.27655" x2="984.966" y2="228.544" stroke="#F3F4F7"/>
<line x1="935.305" y1="-0.27655" x2="935.305" y2="228.544" stroke="#F3F4F7"/>
<line x1="885.645" y1="-0.27655" x2="885.645" y2="228.544" stroke="#F3F4F7"/>
<line x1="836.756" y1="-0.27655" x2="836.756" y2="228.544" stroke="#F3F4F7"/>
<line x1="788.124" y1="-0.27655" x2="788.124" y2="228.544" stroke="#F3F4F7"/>
<line x1="738.721" y1="-0.27655" x2="738.721" y2="228.544" stroke="#F3F4F7"/>
<line x1="1033.6" y1="-0.27655" x2="1033.6" y2="228.544" stroke="#F3F4F7"/>
<line x1="704.171" y1="92.3105" x2="1078.52" y2="92.3105" stroke="#F3F4F7"/>
<line x1="704.171" y1="43.3984" x2="1078.52" y2="43.3984" stroke="#F3F4F7"/>
<line x1="704.171" y1="141.223" x2="1078.52" y2="141.223" stroke="#F3F4F7"/>
<line x1="704.171" y1="190.135" x2="1078.52" y2="190.135" stroke="#F3F4F7"/>
<rect x="831.544" y="92.2616" width="7.25915" height="7.25915" transform="rotate(-45 831.544 92.2616)" fill="#F3F4F7" stroke="#F3F4F7"/>
<rect x="831.544" y="43.3541" width="7.25915" height="7.25915" transform="rotate(-45 831.544 43.3541)" fill="#F3F4F7" stroke="#F3F4F7"/>
<rect x="831.544" y="141.25" width="7.25915" height="7.25915" transform="rotate(-45 831.544 141.25)" fill="#F3F4F7" stroke="#F3F4F7"/>
<rect x="831.544" y="190.157" width="7.25915" height="7.25915" transform="rotate(-45 831.544 190.157)" fill="#F3F4F7" stroke="#F3F4F7"/>
<rect x="783.016" y="92.2616" width="7.25915" height="7.25915" transform="rotate(-45 783.016 92.2616)" fill="#F3F4F7" stroke="#F3F4F7"/>
<rect x="783.016" y="43.3541" width="7.25915" height="7.25915" transform="rotate(-45 783.016 43.3541)" fill="#F3F4F7" stroke="#F3F4F7"/>
<rect x="783.016" y="141.25" width="7.25915" height="7.25915" transform="rotate(-45 783.016 141.25)" fill="#F3F4F7" stroke="#F3F4F7"/>
<rect x="783.016" y="190.157" width="7.25915" height="7.25915" transform="rotate(-45 783.016 190.157)" fill="#F3F4F7" stroke="#F3F4F7"/>
<rect x="733.495" y="92.2616" width="7.25915" height="7.25915" transform="rotate(-45 733.495 92.2616)" fill="#F3F4F7" stroke="#F3F4F7"/>
<rect x="733.495" y="43.3541" width="7.25915" height="7.25915" transform="rotate(-45 733.495 43.3541)" fill="#F3F4F7" stroke="#F3F4F7"/>
<rect x="733.495" y="141.25" width="7.25915" height="7.25915" transform="rotate(-45 733.495 141.25)" fill="#F3F4F7" stroke="#F3F4F7"/>
<rect x="733.495" y="190.157" width="7.25915" height="7.25915" transform="rotate(-45 733.495 190.157)" fill="#F3F4F7" stroke="#F3F4F7"/>
<rect x="880.523" y="92.2616" width="7.25915" height="7.25915" transform="rotate(-45 880.523 92.2616)" fill="#F3F4F7" stroke="#F3F4F7"/>
<rect x="880.523" y="43.3541" width="7.25915" height="7.25915" transform="rotate(-45 880.523 43.3541)" fill="#F3F4F7" stroke="#F3F4F7"/>
<rect x="880.523" y="141.25" width="7.25915" height="7.25915" transform="rotate(-45 880.523 141.25)" fill="#F3F4F7" stroke="#F3F4F7"/>
<rect x="880.523" y="190.157" width="7.25915" height="7.25915" transform="rotate(-45 880.523 190.157)" fill="#F3F4F7" stroke="#F3F4F7"/>
<rect x="930.098" y="92.2616" width="7.25915" height="7.25915" transform="rotate(-45 930.098 92.2616)" fill="#F3F4F7" stroke="#F3F4F7"/>
<rect x="930.098" y="43.3541" width="7.25915" height="7.25915" transform="rotate(-45 930.098 43.3541)" fill="#F3F4F7" stroke="#F3F4F7"/>
<rect x="930.098" y="141.25" width="7.25915" height="7.25915" transform="rotate(-45 930.098 141.25)" fill="#F3F4F7" stroke="#F3F4F7"/>
<rect x="930.098" y="190.157" width="7.25915" height="7.25915" transform="rotate(-45 930.098 190.157)" fill="#F3F4F7" stroke="#F3F4F7"/>
<rect x="979.706" y="92.2616" width="7.25915" height="7.25915" transform="rotate(-45 979.706 92.2616)" fill="#F3F4F7" stroke="#F3F4F7"/>
<rect x="979.706" y="43.3541" width="7.25915" height="7.25915" transform="rotate(-45 979.706 43.3541)" fill="#F3F4F7" stroke="#F3F4F7"/>
<rect x="979.706" y="141.25" width="7.25915" height="7.25915" transform="rotate(-45 979.706 141.25)" fill="#F3F4F7" stroke="#F3F4F7"/>
<rect x="979.706" y="190.157" width="7.25915" height="7.25915" transform="rotate(-45 979.706 190.157)" fill="#F3F4F7" stroke="#F3F4F7"/>
<rect x="1028.45" y="92.2616" width="7.25915" height="7.25915" transform="rotate(-45 1028.45 92.2616)" fill="#F3F4F7" stroke="#F3F4F7"/>
<rect x="1028.45" y="43.3541" width="7.25915" height="7.25915" transform="rotate(-45 1028.45 43.3541)" fill="#F3F4F7" stroke="#F3F4F7"/>
<rect x="1028.45" y="141.25" width="7.25915" height="7.25915" transform="rotate(-45 1028.45 141.25)" fill="#F3F4F7" stroke="#F3F4F7"/>
<rect x="1028.45" y="190.157" width="7.25915" height="7.25915" transform="rotate(-45 1028.45 190.157)" fill="#F3F4F7" stroke="#F3F4F7"/>
<rect x="704.171" y="-0.27655" width="374" height="228.82" fill="url(#paint1_radial_26_322)"/>
</g>
</g>
<defs>
<radialGradient id="paint0_radial_26_322" cx="0" cy="0" r="1" gradientUnits="userSpaceOnUse" gradientTransform="translate(98 454.59) rotate(-74.069) scale(98.3678 573.32)">
<stop stop-color="white" stop-opacity="0"/>
<stop offset="1" stop-color="white"/>
</radialGradient>
<radialGradient id="paint1_radial_26_322" cx="0" cy="0" r="1" gradientUnits="userSpaceOnUse" gradientTransform="translate(910 77) rotate(120.387) scale(221.416 361.897)">
<stop stop-color="white" stop-opacity="0"/>
<stop offset="1" stop-color="white"/>
</radialGradient>
<clipPath id="clip0_26_322">
<rect width="1078" height="560" fill="white"/>
</clipPath>
</defs>
</svg>
